<svg width="328" height="296" viewBox="0 0 328 296" fill="none" xmlns="http://www.w3.org/2000/svg">
<path d="M0.600001 290V0.79998H78.2V92C92.8667 79.7333 110.733 73.6 131.8 73.6C162.2 73.6 186.333 83.8667 204.2 104.4C222.333 124.667 231.4 151.333 231.4 184.4C231.4 216.933 221.533 243.6 201.8 264.4C182.333 284.933 157.267 295.2 126.6 295.2C103.133 295.2 85.1333 288.933 72.6 276.4V290H0.600001ZM75.8 184.4C75.8 196.933 79.1333 207.467 85.8 216C92.7333 224.267 102.333 228.4 114.6 228.4C126.867 228.4 136.467 224.533 143.4 216.8C150.333 208.8 153.8 198 153.8 184.4C153.8 171.067 150.333 160.4 143.4 152.4C136.467 144.133 126.867 140 114.6 140C102.867 140 93.4 144 86.2 152C79.2667 159.733 75.8 170.533 75.8 184.4ZM237.15 251.2C237.15 238.667 241.417 228.133 249.95 219.6C258.75 210.8 269.55 206.4 282.35 206.4C295.15 206.4 305.817 210.8 314.35 219.6C323.15 228.133 327.55 238.667 327.55 251.2C327.55 263.467 323.15 273.867 314.35 282.4C305.817 290.933 295.15 295.2 282.35 295.2C269.55 295.2 258.75 290.933 249.95 282.4C241.417 273.867 237.15 263.467 237.15 251.2Z" fill="white"/>
</svg>
